:SAMPLES-PER-SECOND 30
:FULLY-SPECIFIED
:DEGREES
929
root  -38.4033 25.29 8.99597 -18.0608 -61.5128 144
RightUpLeg  170.503 -13.6419 50.1299
RightLeg  91.3168 -0.226189 8.67761
RightFoot  5.56864 -0.753176 5.34089
RightToes  3.49245e-010 0 -3.6325e-017
Spine  -171.441 29.0141 -14.6301
Spine1  58.1981 47.6215 -47.835
HEad  -24.685 6.55212 -8.12014
LeftShoulder1  -0.334114 -2.20204 16.3796
LeftArm  -70.3581 -42.2896 0.811096
LeftForeArm  -14.4874 -61.5926 -22.8582
LeftHand  0.0185723 8.61071 2.23043
RightShoulder  0.0859451 4.1584 -8.40573
RightArm  -63.1472 18.6648 -3.00761
RightForeArm  -32.9066 60.7555 23.2439
RightHand  -1.4067 14.7036 -8.5278
LeftUpLeg  -164.425 -22.2369 -9.17331
LeftLeg  79.0568 -0.50331 -1.09636
LeftFoot  -31.2058 -0.576315 -4.37107
LeftToes  -5.36635e-011 -6.70219e-011 5.24975e-011
930
root  -38.1724 25.0469 9.15429 -37.0258 -68.4542 154.621
RightUpLeg  176.605 -10.9768 42.899
RightLeg  92.8849 -0.47415 8.98595
RightFoot  2.64663 -0.720916 5.97294
RightToes  3.49245e-010 0 -3.6325e-017
Spine  -130.682 59.3956 8.25885
Spine1  12.1814 45.0519 -80.2354
HEad  -24.6919 6.67169 -7.66803
LeftShoulder1  -0.26755 -1.51489 15.7528
LeftArm  -71.884 -42.7285 1.32717
LeftForeArm  -14.1769 -61.7618 -23.0109
LeftHand  0.0150561 8.05695 2.35654
RightShoulder  0.0310438 3.56246 -9.20266
RightArm  -64.7267 20.2159 -2.91681
RightForeArm  -33.0224 59.7957 22.3307
RightHand  -1.56822 14.3987 -9.58658
LeftUpLeg  -161.658 -12.6083 -10.1656
LeftLeg  84.8785 -0.198043 1.12106
LeftFoot  -30.8732 -0.736006 -5.35208
LeftToes  -5.36635e-011 -6.70219e-011 5.24975e-011
931
root  -38.4183 25.1136 9.14945 -55.1107 -70.0401 167.005
RightUpLeg  179.479 -5.6371 37.5703
RightLeg  91.2539 -0.109872 7.19473
RightFoot  -1.01065 -0.493707 5.41955
RightToes  3.49245e-010 0 -3.6325e-017
Spine  -92.9414 56.5389 32.4022
Spine1  -0.293426 34.4952 -81.6058
HEad  -24.9537 6.34681 -7.60401
LeftShoulder1  -0.210558 -1.1367 14.8625
LeftArm  -74.4264 -42.9906 1.59551
LeftForeArm  -13.3155 -62.0255 -23.22
LeftHand  0.0578949 9.18582 3.20937
RightShoulder  -0.0016493 3.03096 -9.74203
RightArm  -67.115 22.1451 -4.10696
RightForeArm  -33.7779 58.4488 21.1472
RightHand  -1.5876 14.8873 -9.47962
LeftUpLeg  -157.739 -7.76213 -12.223
LeftLeg  88.0335 -0.271117 1.34786
LeftFoot  -30.7808 -0.808962 -5.80484
LeftToes  -5.36635e-011 -6.70219e-011 5.24975e-011
932
root  -38.1899 24.6988 9.12985 -77.9203 -73.5601 -177.553
RightUpLeg  -175.942 0.340432 33.6916
RightLeg  89.2562 0.141851 7.98888
RightFoot  -3.85107 -0.445112 6.40544
RightToes  3.49245e-010 0 -3.6325e-017
Spine  -47.2776 34.3693 48.6395
Spine1  -17.7573 10.8948 -68.7034
HEad  -24.5931 5.88029 -6.87464
LeftShoulder1  -0.210138 -1.18689 14.7975
LeftArm  -76.4052 -43.2779 0.948696
LeftForeArm  -12.3915 -62.1944 -23.3234
LeftHand  0.148184 10.3309 4.34861
RightShoulder  -0.0107574 2.47494 -9.91584
RightArm  -68.8871 23.2811 -4.73008
RightForeArm  -33.5049 57.8911 20.6714
RightHand  -1.53025 15.0056 -9.10273
LeftUpLeg  -155.689 -0.645316 -12.4199
LeftLeg  93.6655 -0.336013 0.642435
LeftFoot  -30.1538 -0.754296 -5.64287
LeftToes  -5.36635e-011 -6.70219e-011 5.24975e-011
933
root  -38.1903 24.1706 8.85723 -89.1642 -75.8369 -169.303
RightUpLeg  -175.495 5.66425 31.3233
RightLeg  85.6539 0.711865 10.297
RightFoot  -6.45087 -0.373015 7.69298
RightToes  3.49245e-010 0 -3.6325e-017
Spine  -42.9617 23.2661 36.2027
Spine1  -20.8913 4.65835 -52.9784
HEad  -24.544 5.25171 -6.44452
LeftShoulder1  -0.257295 -1.17134 15.9625
LeftArm  -78.1792 -43.1017 -0.246492
LeftForeArm  -11.5396 -62.3946 -23.4702
LeftHand  0.286272 12.1174 5.58058
RightShoulder  0.00759919 1.78086 -9.5633
RightArm  -70.8451 24.1092 -5.70069
RightForeArm  -33.5907 57.4617 20.3238
RightHand  -1.35809 15.0817 -8.10949
LeftUpLeg  -156.019 2.32781 -12.7801
LeftLeg  97.4138 -0.0393191 -1.30678
LeftFoot  -29.6019 -0.468003 -4.01954
LeftToes  -5.36635e-011 -6.70219e-011 5.24975e-011
